<svg 
 xmlns="http://www.w3.org/2000/svg"
 xmlns:xlink="http://www.w3.org/1999/xlink"
 width="11px" height="13px">
<path fill-rule="evenodd"  fill="rgb(168, 168, 168)"
 d="M10.258,13.000 L6.278,13.000 L2.297,13.000 C1.888,13.000 1.555,12.678 1.555,12.282 L1.555,11.936 L4.721,11.936 L8.703,11.936 C9.344,11.936 9.866,11.431 9.866,10.810 L9.866,1.472 L10.259,1.472 C10.669,1.472 11.000,1.793 11.000,2.190 L11.000,12.282 C11.000,12.678 10.667,13.000 10.258,13.000 ZM8.701,11.528 L4.721,11.528 L1.557,11.528 L0.743,11.528 C0.333,11.528 0.000,11.207 0.000,10.810 L0.000,3.289 L0.259,3.289 C0.280,3.291 0.302,3.292 0.322,3.292 L1.941,3.292 L2.356,3.292 C2.933,3.292 3.402,2.839 3.402,2.281 L3.402,1.879 L3.402,0.313 C3.402,0.288 3.401,0.262 3.398,0.238 L3.398,0.000 L4.721,0.000 L8.701,0.000 C9.111,0.000 9.444,0.322 9.444,0.718 L9.444,1.472 L9.444,10.810 C9.444,11.207 9.111,11.528 8.701,11.528 ZM2.276,9.088 L4.871,9.088 C5.065,9.088 5.224,8.935 5.224,8.748 C5.224,8.561 5.066,8.409 4.872,8.409 L2.276,8.409 C2.083,8.409 1.926,8.561 1.926,8.748 C1.926,8.935 2.083,9.088 2.276,9.088 ZM7.468,4.837 L2.276,4.837 C2.083,4.837 1.926,4.989 1.926,5.176 C1.926,5.364 2.083,5.516 2.276,5.516 L7.468,5.516 C7.661,5.516 7.819,5.364 7.819,5.176 C7.819,4.989 7.661,4.837 7.468,4.837 ZM7.468,6.676 L2.276,6.676 C2.083,6.676 1.926,6.828 1.926,7.016 C1.926,7.203 2.083,7.355 2.276,7.355 L7.468,7.355 C7.661,7.355 7.819,7.203 7.819,7.016 C7.819,6.828 7.661,6.676 7.468,6.676 ZM2.362,2.885 C2.360,2.885 2.358,2.885 2.356,2.885 L0.322,2.885 C0.043,2.885 -0.095,2.559 0.101,2.369 L2.446,0.101 C2.511,0.038 2.588,0.011 2.665,0.011 C2.826,0.011 2.979,0.132 2.979,0.313 L2.979,2.282 C2.979,2.283 2.979,2.286 2.979,2.287 C2.977,2.616 2.702,2.882 2.362,2.885 Z"/>
</svg>