<svg 
 xmlns="http://www.w3.org/2000/svg"
 xmlns:xlink="http://www.w3.org/1999/xlink"
 width="12px" height="12px">
<path fill-rule="evenodd"  fill="rgb(168, 168, 168)"
 d="M11.770,8.308 L10.155,8.308 L10.155,2.170 L11.936,0.396 C11.979,0.348 12.000,0.293 12.000,0.231 C12.000,0.168 11.979,0.113 11.936,0.065 C11.887,0.021 11.832,-0.000 11.770,-0.000 C11.707,-0.000 11.652,0.021 11.604,0.065 L9.830,1.846 L3.692,1.846 L3.692,0.231 C3.692,0.163 3.670,0.108 3.627,0.065 C3.584,0.021 3.529,-0.000 3.462,-0.000 L2.076,-0.000 C2.010,-0.000 1.954,0.021 1.911,0.065 C1.868,0.108 1.846,0.163 1.846,0.231 L1.846,1.846 L0.230,1.846 C0.163,1.846 0.108,1.867 0.065,1.911 C0.022,1.954 -0.000,2.009 -0.000,2.077 L-0.000,3.461 C-0.000,3.529 0.022,3.584 0.065,3.627 C0.108,3.671 0.163,3.692 0.230,3.692 L1.846,3.692 L1.846,9.923 C1.846,9.991 1.868,10.046 1.911,10.089 C1.954,10.132 2.010,10.154 2.076,10.154 L8.308,10.154 L8.308,11.770 C8.308,11.837 8.330,11.892 8.373,11.936 C8.416,11.979 8.471,12.000 8.539,12.000 L9.924,12.000 C9.991,12.000 10.046,11.979 10.090,11.936 C10.133,11.892 10.155,11.837 10.155,11.770 L10.155,10.154 L11.770,10.154 C11.837,10.154 11.892,10.132 11.936,10.089 C11.979,10.046 12.000,9.991 12.000,9.923 L12.000,8.539 C12.000,8.471 11.979,8.416 11.936,8.373 C11.892,8.330 11.837,8.308 11.770,8.308 ZM3.692,3.692 L7.984,3.692 L3.692,7.983 L3.692,3.692 ZM8.308,8.308 L4.017,8.308 L8.308,4.016 L8.308,8.308 Z"/>
</svg>