<svg 
 xmlns="http://www.w3.org/2000/svg"
 xmlns:xlink="http://www.w3.org/1999/xlink"
 width="11px" height="12px">
<path fill-rule="evenodd"  fill="rgb(168, 168, 168)"
 d="M-0.000,2.188 L-0.000,0.997 C-0.000,0.788 0.208,0.618 0.466,0.618 L3.665,0.618 L3.665,0.126 C3.665,0.057 3.734,-0.000 3.820,-0.000 L7.179,-0.000 C7.265,-0.000 7.335,0.057 7.335,0.126 L7.335,0.618 L10.534,0.618 C10.791,0.618 11.000,0.788 11.000,0.997 L11.000,2.188 L-0.000,2.188 ZM9.709,11.421 C9.692,11.745 9.365,12.000 8.967,12.000 L2.033,12.000 C1.634,12.000 1.307,11.745 1.291,11.421 L0.796,2.922 L10.204,2.922 L9.709,11.421 ZM3.931,5.033 C3.931,4.898 3.796,4.788 3.629,4.788 L3.147,4.788 C2.980,4.788 2.845,4.898 2.845,5.033 L2.845,9.889 C2.845,10.025 2.980,10.134 3.147,10.134 L3.629,10.134 C3.796,10.134 3.931,10.025 3.931,9.889 L3.931,5.033 ZM6.043,5.033 C6.043,4.898 5.907,4.788 5.741,4.788 L5.258,4.788 C5.092,4.788 4.956,4.898 4.956,5.033 L4.956,9.889 C4.956,10.025 5.092,10.134 5.258,10.134 L5.741,10.134 C5.907,10.134 6.043,10.025 6.043,9.889 L6.043,5.033 ZM8.154,5.033 C8.154,4.898 8.019,4.788 7.852,4.788 L7.369,4.788 C7.203,4.788 7.068,4.898 7.068,5.033 L7.068,9.889 C7.068,10.025 7.203,10.134 7.369,10.134 L7.852,10.134 C8.019,10.134 8.154,10.025 8.154,9.889 L8.154,5.033 Z"/>
</svg>