<svg 
 xmlns="http://www.w3.org/2000/svg"
 xmlns:xlink="http://www.w3.org/1999/xlink"
 width="15px" height="12px">
<path fill-rule="evenodd"  fill="rgb(168, 168, 168)"
 d="M10.074,4.613 L6.608,8.066 C6.326,7.880 6.086,7.640 5.900,7.360 L9.366,3.907 C9.646,4.093 9.887,4.333 10.074,4.613 ZM9.373,8.066 C10.523,7.305 10.837,5.760 10.074,4.613 L11.874,2.820 C13.030,3.613 14.052,4.582 14.904,5.693 C15.031,5.868 15.031,6.105 14.904,6.280 C14.778,6.451 11.794,10.477 7.986,10.477 C6.938,10.456 5.909,10.182 4.990,9.679 L6.608,8.066 C7.445,8.619 8.534,8.619 9.373,8.066 ZM2.122,11.827 C1.926,11.633 1.927,11.317 2.122,11.122 L4.099,9.155 C4.386,9.345 4.684,9.520 4.990,9.679 L2.831,11.828 C2.634,12.023 2.317,12.023 2.122,11.827 ZM5.482,5.986 C5.482,6.475 5.627,6.953 5.900,7.360 L4.099,9.153 C2.943,8.361 1.920,7.391 1.070,6.280 C0.942,6.105 0.942,5.868 1.070,5.693 C1.195,5.522 4.179,1.496 7.986,1.496 C9.035,1.517 10.063,1.791 10.983,2.294 L9.366,3.907 C8.955,3.636 8.472,3.491 7.978,3.492 C6.598,3.494 5.479,4.611 5.482,5.986 ZM13.851,0.146 C14.046,0.341 14.046,0.657 13.851,0.852 L11.874,2.818 C11.587,2.628 11.290,2.453 10.983,2.294 L13.142,0.146 C13.339,-0.049 13.656,-0.049 13.851,0.146 Z"/>
</svg>