<svg 
 xmlns="http://www.w3.org/2000/svg"
 xmlns:xlink="http://www.w3.org/1999/xlink"
 width="14px" height="9px">
<path fill-rule="evenodd"  fill="rgb(181, 181, 181)"
 d="M6.984,-0.000 C4.303,-0.000 1.872,1.578 0.078,4.142 C-0.068,4.352 -0.068,4.645 0.078,4.855 C1.872,7.422 4.303,9.000 6.984,9.000 C9.665,9.000 12.095,7.422 13.890,4.858 C14.036,4.648 14.036,4.355 13.890,4.145 C12.095,1.578 9.665,-0.000 6.984,-0.000 ZM7.176,7.669 C5.397,7.789 3.927,6.211 4.039,4.293 C4.131,2.712 5.322,1.430 6.792,1.331 C8.572,1.211 10.040,2.789 9.928,4.707 C9.834,6.285 8.643,7.567 7.176,7.669 ZM7.087,6.205 C6.128,6.270 5.336,5.420 5.400,4.389 C5.448,3.536 6.091,2.848 6.884,2.792 C7.842,2.727 8.634,3.577 8.572,4.608 C8.520,5.464 7.877,6.152 7.087,6.205 Z"/>
</svg>