<svg xmlns="http://www.w3.org/2000/svg" viewBox="0 0 55.32 69.55"><defs><style>.cls-1{fill:#2889d2;}.cls-2{fill:#fff;}.cls-3{fill:#4d4c4c;}</style></defs><title>Asset 2</title><g id="Layer_2" data-name="Layer 2"><g id="Layer_1-2" data-name="Layer 1"><path class="cls-1" d="M17.38,45.66H38L54.88,28.72a1.49,1.49,0,0,0,0-2.12L28.72.44a1.49,1.49,0,0,0-2.12,0L.44,26.6a1.49,1.49,0,0,0,0,2.12Z"/><rect class="cls-2" x="7.66" y="17.66" width="24" height="3.5" rx="1.75" ry="1.75" transform="translate(-7.96 18.83) rotate(-43.44)"/><rect class="cls-2" x="15.36" y="27.42" width="18.9" height="3.5" rx="1.75" ry="1.75" transform="translate(-13.26 25.04) rotate(-43.44)"/><rect class="cls-2" x="23.03" y="36.11" width="13.97" height="3.5" rx="1.75" ry="1.75" transform="translate(-17.81 31.01) rotate(-43.44)"/><path class="cls-3" d="M16,59l-3.11.68q-.35-2.28-2.16-2.28a2.24,2.24,0,0,0-1.88,1,5.84,5.84,0,0,0-.72,3.34,6.89,6.89,0,0,0,.72,3.66,2.19,2.19,0,0,0,1.9,1.07,1.94,1.94,0,0,0,1.47-.61A4.11,4.11,0,0,0,13,63.66l3.11.64q-1,5.25-5.51,5.25a4.75,4.75,0,0,1-4.32-2.22A9.75,9.75,0,0,1,4.87,62,8.83,8.83,0,0,1,6.46,56.3a5.16,5.16,0,0,1,4.18-2,5.13,5.13,0,0,1,3.42,1.11A6.41,6.41,0,0,1,16,59Z"/><path class="cls-3" d="M20.93,69.21,16.1,54.69h3.3l2.25,7.41.65,2.47L23,62.1l2.28-7.41h3.23L23.73,69.21Z"/><path class="cls-3" d="M32.06,59.1l-2.86-.63a5.56,5.56,0,0,1,1.71-3.16,5.4,5.4,0,0,1,3.44-1,6.54,6.54,0,0,1,3,.57,3.36,3.36,0,0,1,1.51,1.52,9.37,9.37,0,0,1,.45,3.51l0,4.49a19.07,19.07,0,0,0,.15,2.81,9.88,9.88,0,0,0,.56,2H36.92l-.41-1.59a5.73,5.73,0,0,1-1.73,1.44,4.07,4.07,0,0,1-2,.49A3.73,3.73,0,0,1,30,68.38a4.35,4.35,0,0,1-1.11-3.12,4.83,4.83,0,0,1,.45-2.15,3.68,3.68,0,0,1,1.27-1.46,8.23,8.23,0,0,1,2.63-1,15.3,15.3,0,0,0,3.05-1,4.79,4.79,0,0,0-.17-1.59,1.38,1.38,0,0,0-.63-.61,2.73,2.73,0,0,0-1.3-.25,2.08,2.08,0,0,0-1.33.39A2.75,2.75,0,0,0,32.06,59.1Zm4.21,3.13a14.78,14.78,0,0,1-1.88.58,4.44,4.44,0,0,0-1.91.85A1.66,1.66,0,0,0,32,64.87a2,2,0,0,0,.5,1.4,1.59,1.59,0,0,0,1.25.57,2.25,2.25,0,0,0,1.32-.46A2.41,2.41,0,0,0,36,65.29,6.89,6.89,0,0,0,36.27,63Z"/><path class="cls-3" d="M45.71,69.47v-3h-5V64L46,54.57h2V64h1.51v2.5H48v3Zm0-5.49V58.91L42.91,64Z"/></g></g></svg>