<svg 
 xmlns="http://www.w3.org/2000/svg"
 xmlns:xlink="http://www.w3.org/1999/xlink"
 width="201px" height="32px">
<path fill-rule="evenodd"  fill="rgb(70, 91, 160)"
 d="M2.000,-0.000 L199.000,-0.000 C200.105,-0.000 201.000,0.895 201.000,2.000 L201.000,30.000 C201.000,31.105 200.105,32.000 199.000,32.000 L2.000,32.000 C0.895,32.000 0.000,31.105 0.000,30.000 L0.000,2.000 C0.000,0.895 0.895,-0.000 2.000,-0.000 Z"/>
<path fill-rule="evenodd"  fill="rgb(43, 62, 124)"
 d="M2.000,2.000 L30.000,2.000 L30.000,30.000 L2.000,30.000 L2.000,2.000 Z"/>
<path fill-rule="evenodd"  fill="rgb(255, 255, 255)"
 d="M13.161,14.680 C13.161,15.159 13.161,17.296 13.161,17.296 L11.000,17.296 L11.000,20.495 L13.161,20.495 L13.161,30.000 L17.602,30.000 L17.602,20.495 L20.581,20.495 C20.581,20.495 20.860,18.961 20.995,17.284 C20.608,17.284 17.618,17.284 17.618,17.284 C17.618,17.284 17.618,15.423 17.618,15.097 C17.618,14.770 18.102,14.330 18.581,14.330 C19.059,14.330 20.066,14.330 21.000,14.330 C21.000,13.895 21.000,12.390 21.000,11.000 C19.754,11.000 18.336,11.000 17.711,11.000 C13.052,11.000 13.161,14.202 13.161,14.680 Z"/>
<text kerning="auto" font-family="Myriad Pro" fill="rgb(0, 0, 0)" font-size="12px" x="43px" y="18.892px"><tspan font-size="12px" font-family="Poppins" fill="#FFFFFF">Share&#32;with&#32;Facebook</tspan></text>
</svg>