<svg 
 xmlns="http://www.w3.org/2000/svg"
 xmlns:xlink="http://www.w3.org/1999/xlink"
 width="201px" height="32px">
<path fill-rule="evenodd"  fill="rgb(209, 61, 34)"
 d="M2.000,-0.000 L199.000,-0.000 C200.105,-0.000 201.000,0.895 201.000,2.000 L201.000,30.000 C201.000,31.105 200.105,32.000 199.000,32.000 L2.000,32.000 C0.895,32.000 0.000,31.105 0.000,30.000 L0.000,2.000 C0.000,0.895 0.895,-0.000 2.000,-0.000 Z"/>
<path fill-rule="evenodd"  fill="rgb(174, 47, 24)"
 d="M2.000,2.000 L30.000,2.000 L30.000,30.000 L2.000,30.000 L2.000,2.000 Z"/>
<path fill-rule="evenodd"  fill="rgb(255, 255, 255)"
 d="M24.250,16.500 L24.250,19.100 L22.875,19.100 L22.875,16.500 L20.125,16.500 L20.125,15.200 L22.875,15.200 L22.875,12.600 L24.250,12.600 L24.250,15.200 L27.000,15.200 L27.000,16.500 L24.250,16.500 ZM11.875,23.000 C8.084,23.000 5.000,20.084 5.000,16.500 C5.000,12.916 8.084,10.000 11.875,10.000 C13.526,10.000 15.116,10.562 16.353,11.581 L14.547,13.541 C13.810,12.934 12.861,12.600 11.875,12.600 C9.601,12.600 7.750,14.350 7.750,16.500 C7.750,18.650 9.601,20.400 11.875,20.400 C13.668,20.400 15.197,19.313 15.765,17.800 L11.875,17.800 L11.875,15.200 L18.750,15.200 L18.750,16.500 C18.750,20.084 15.666,23.000 11.875,23.000 Z"/>
<text kerning="auto" font-family="Myriad Pro" fill="rgb(0, 0, 0)" font-size="12px" x="43px" y="19.726px"><tspan font-size="12px" font-family="Poppins" fill="#FFFFFF">Share&#32;with&#32;Google</tspan></text>
</svg>