<svg 
 xmlns="http://www.w3.org/2000/svg"
 xmlns:xlink="http://www.w3.org/1999/xlink"
 width="201px" height="32px">
<path fill-rule="evenodd"  fill="rgb(208, 29, 138)"
 d="M2.000,0.000 L199.000,0.000 C200.105,0.000 201.000,0.895 201.000,2.000 L201.000,30.000 C201.000,31.105 200.105,32.000 199.000,32.000 L2.000,32.000 C0.895,32.000 0.000,31.105 0.000,30.000 L0.000,2.000 C0.000,0.895 0.895,0.000 2.000,0.000 Z"/>
<path fill-rule="evenodd"  fill="rgb(182, 24, 120)"
 d="M2.000,2.000 L30.000,2.000 L30.000,30.000 L2.000,30.000 L2.000,2.000 Z"/>
<path fill-rule="evenodd"  fill="rgb(255, 255, 255)"
 d="M21.500,8.000 L9.500,8.000 C8.675,8.000 8.000,8.675 8.000,9.500 L8.000,21.500 C8.000,22.325 8.675,23.000 9.500,23.000 L21.500,23.000 C22.325,23.000 23.000,22.325 23.000,21.500 L23.000,9.500 C23.000,8.675 22.325,8.000 21.500,8.000 ZM15.500,12.500 C17.150,12.500 18.500,13.850 18.500,15.500 C18.500,17.150 17.150,18.500 15.500,18.500 C13.850,18.500 12.500,17.150 12.500,15.500 C12.500,13.850 13.850,12.500 15.500,12.500 ZM9.875,21.500 C9.650,21.500 9.500,21.350 9.500,21.125 L9.500,14.750 L11.075,14.750 C11.000,14.975 11.000,15.275 11.000,15.500 C11.000,17.975 13.025,20.000 15.500,20.000 C17.975,20.000 20.000,17.975 20.000,15.500 C20.000,15.275 20.000,14.975 19.925,14.750 L21.500,14.750 L21.500,21.125 C21.500,21.350 21.350,21.500 21.125,21.500 L9.875,21.500 ZM21.500,11.375 C21.500,11.600 21.350,11.750 21.125,11.750 L19.625,11.750 C19.400,11.750 19.250,11.600 19.250,11.375 L19.250,9.875 C19.250,9.650 19.400,9.500 19.625,9.500 L21.125,9.500 C21.350,9.500 21.500,9.650 21.500,9.875 L21.500,11.375 Z"/>
<text kerning="auto" font-family="Myriad Pro" fill="rgb(0, 0, 0)" font-size="12px" x="43px" y="19.726px"><tspan font-size="12px" font-family="Poppins" fill="#FFFFFF">Share&#32;with&#32;Instagram</tspan></text>
</svg>