<svg 
 xmlns="http://www.w3.org/2000/svg"
 xmlns:xlink="http://www.w3.org/1999/xlink"
 width="201px" height="32px">
<path fill-rule="evenodd"  fill="rgb(235, 211, 5)"
 d="M2.000,0.000 L199.000,0.000 C200.105,0.000 201.000,0.895 201.000,2.000 L201.000,30.000 C201.000,31.105 200.105,32.000 199.000,32.000 L2.000,32.000 C0.895,32.000 0.000,31.105 0.000,30.000 L0.000,2.000 C0.000,0.895 0.895,0.000 2.000,0.000 Z"/>
<path fill-rule="evenodd"  fill="rgb(217, 195, 7)"
 d="M2.000,2.000 L30.000,2.000 L30.000,30.000 L2.000,30.000 L2.000,2.000 Z"/>
<path fill-rule="evenodd"  fill="rgb(255, 255, 255)"
 d="M24.594,19.745 C22.326,19.367 21.292,17.046 21.182,16.783 C21.180,16.778 21.171,16.759 21.169,16.754 C21.055,16.520 21.027,16.330 21.086,16.190 C21.205,15.905 21.710,15.744 22.033,15.640 C22.124,15.611 22.209,15.583 22.277,15.556 C22.930,15.295 23.258,14.961 23.251,14.564 C23.245,14.248 23.001,13.959 22.638,13.829 C22.514,13.776 22.365,13.748 22.221,13.748 C22.121,13.748 21.972,13.762 21.830,13.829 C21.554,13.960 21.308,14.030 21.122,14.038 C21.039,14.035 20.976,14.021 20.931,14.006 C20.936,13.906 20.943,13.804 20.949,13.700 L20.953,13.647 C21.030,12.409 21.125,10.869 20.718,9.945 C19.513,7.212 16.956,7.000 16.201,7.000 L15.849,7.003 C15.095,7.003 12.543,7.216 11.339,9.947 C10.931,10.872 11.027,12.412 11.105,13.650 C11.112,13.772 11.120,13.890 11.126,14.006 C11.075,14.024 11.000,14.040 10.899,14.040 C10.683,14.040 10.423,13.969 10.128,13.829 C9.702,13.627 8.922,13.897 8.817,14.457 C8.760,14.760 8.880,15.196 9.780,15.556 C9.850,15.584 9.938,15.612 10.046,15.647 C10.347,15.744 10.852,15.906 10.971,16.190 C11.030,16.331 11.002,16.520 10.878,16.777 C10.833,16.882 9.765,19.343 7.405,19.736 C7.160,19.776 6.986,19.996 7.000,20.246 C7.003,20.316 7.019,20.385 7.049,20.456 C7.247,20.925 8.002,21.251 9.424,21.479 C9.455,21.561 9.491,21.728 9.512,21.825 C9.542,21.964 9.573,22.107 9.616,22.256 C9.660,22.406 9.788,22.658 10.159,22.658 C10.285,22.658 10.431,22.629 10.589,22.598 C10.816,22.553 11.127,22.492 11.512,22.492 C11.726,22.492 11.949,22.511 12.174,22.549 C12.599,22.620 12.972,22.887 13.405,23.196 C14.042,23.652 14.621,24.000 15.779,24.000 C15.810,24.000 15.840,23.999 15.870,23.997 C15.913,23.999 15.956,24.000 16.000,24.000 C17.014,24.000 17.907,23.729 18.654,23.195 C19.067,22.900 19.457,22.620 19.882,22.549 C20.108,22.511 20.331,22.492 20.545,22.492 C20.914,22.492 21.209,22.540 21.473,22.592 C21.650,22.627 21.790,22.644 21.918,22.644 C22.177,22.644 22.368,22.500 22.441,22.248 C22.483,22.102 22.515,21.963 22.545,21.821 C22.561,21.746 22.600,21.565 22.633,21.478 C24.034,21.252 24.750,20.939 24.948,20.471 C24.978,20.404 24.995,20.332 25.000,20.256 C25.013,20.006 24.839,19.787 24.594,19.745 Z"/>
<text kerning="auto" font-family="Myriad Pro" fill="rgb(0, 0, 0)" font-size="12px" x="43px" y="19.834px"><tspan font-size="12px" font-family="Poppins" fill="#FFFFFF">Share&#32;with&#32;Snapchat</tspan></text>
</svg>