<svg 
 xmlns="http://www.w3.org/2000/svg"
 xmlns:xlink="http://www.w3.org/1999/xlink"
 width="201px" height="32px">
<path fill-rule="evenodd"  fill="rgb(0, 157, 247)"
 d="M2.000,-0.000 L199.000,-0.000 C200.105,-0.000 201.000,0.895 201.000,2.000 L201.000,30.000 C201.000,31.105 200.105,32.000 199.000,32.000 L2.000,32.000 C0.895,32.000 0.000,31.105 0.000,30.000 L0.000,2.000 C0.000,0.895 0.895,-0.000 2.000,-0.000 Z"/>
<path fill-rule="evenodd"  fill="rgb(5, 139, 216)"
 d="M2.000,2.000 L30.000,2.000 L30.000,30.000 L2.000,30.000 L2.000,2.000 Z"/>
<text kerning="auto" font-family="Myriad Pro" fill="rgb(0, 0, 0)" font-size="12px" x="43px" y="18.892px"><tspan font-size="12px" font-family="Poppins" fill="#FFFFFF">Share&#32;with&#32;Twitter</tspan></text>
<path fill-rule="evenodd"  fill="rgb(255, 255, 255)"
 d="M23.559,9.240 C22.924,9.616 22.221,9.889 21.473,10.037 C20.874,9.398 20.022,9.000 19.078,9.000 C17.265,9.000 15.795,10.470 15.795,12.282 C15.795,12.539 15.824,12.790 15.880,13.030 C13.152,12.893 10.733,11.586 9.115,9.600 C8.832,10.084 8.671,10.648 8.671,11.250 C8.671,12.389 9.251,13.394 10.131,13.982 C9.593,13.964 9.087,13.816 8.644,13.570 L8.644,13.611 C8.644,15.201 9.776,16.527 11.276,16.830 C11.002,16.904 10.712,16.945 10.412,16.945 C10.200,16.945 9.995,16.924 9.794,16.886 C10.212,18.190 11.423,19.139 12.859,19.166 C11.736,20.046 10.320,20.570 8.783,20.570 C8.518,20.570 8.257,20.555 8.000,20.525 C9.453,21.456 11.177,22.000 13.032,22.000 C19.069,22.000 22.370,16.998 22.370,12.660 L22.360,12.235 C23.003,11.774 23.561,11.196 24.000,10.538 C23.411,10.799 22.780,10.976 22.115,11.055 C22.793,10.649 23.313,10.005 23.559,9.240 Z"/>
</svg>