<svg 
 xmlns="http://www.w3.org/2000/svg"
 xmlns:xlink="http://www.w3.org/1999/xlink"
 width="14px" height="11px">
<path fill-rule="evenodd"  fill="#237fcd"
 d="M0.000,11.000 L0.000,2.115 L0.751,2.115 L0.751,3.808 L9.375,3.808 L9.375,10.154 L12.000,10.154 L12.000,11.000 L0.000,11.000 ZM8.625,4.654 L0.751,4.654 L0.751,9.657 L2.861,7.615 L3.863,7.615 L4.988,8.462 L5.450,8.462 L7.325,5.923 L8.625,5.923 L8.625,4.654 ZM8.625,6.769 L7.678,6.769 L5.802,9.308 L4.763,9.308 L3.638,8.462 L3.139,8.462 L1.387,10.154 L8.625,10.154 L8.625,6.769 ZM4.500,6.346 L5.251,6.346 L5.251,7.192 L4.500,7.192 L4.500,6.346 ZM11.250,8.462 L12.000,8.462 L12.000,9.308 L11.250,9.308 L11.250,8.462 ZM11.250,6.346 L12.000,6.346 L12.000,7.192 L11.250,7.192 L11.250,6.346 ZM11.250,4.231 L12.000,4.231 L12.000,5.077 L11.250,5.077 L11.250,4.231 ZM11.250,2.115 L12.000,2.115 L12.000,2.962 L11.250,2.962 L11.250,2.115 ZM11.250,-0.000 L12.000,-0.000 L12.000,0.846 L11.250,0.846 L11.250,-0.000 ZM9.375,-0.000 L10.125,-0.000 L10.125,0.846 L9.375,0.846 L9.375,-0.000 ZM7.500,-0.000 L8.250,-0.000 L8.250,0.846 L7.500,0.846 L7.500,-0.000 ZM5.625,-0.000 L6.375,-0.000 L6.375,0.846 L5.625,0.846 L5.625,-0.000 ZM3.750,-0.000 L4.500,-0.000 L4.500,0.846 L3.750,0.846 L3.750,-0.000 ZM1.875,-0.000 L2.625,-0.000 L2.625,0.846 L1.875,0.846 L1.875,-0.000 ZM0.000,-0.000 L0.751,-0.000 L0.751,0.846 L0.000,0.846 L0.000,-0.000 Z"/>
</svg>