<svg xmlns="http://www.w3.org/2000/svg" viewBox="0 0 17.9 11.93"><defs><style>.cls-1{fill:#004990;}.cls-2{fill:#fff;}.cls-3{fill:#e31937;}</style></defs><title>Asset 10</title><g id="Layer_2" data-name="Layer 2"><g id="Layer_1-2" data-name="Layer 1"><rect class="cls-1" width="17.9" height="11.93"/><rect class="cls-1" width="17.9" height="11.93"/><polygon class="cls-2" points="17.9 4.18 10.74 4.18 10.74 0 7.16 0 7.16 4.18 0 4.18 0 7.76 7.16 7.76 7.16 11.94 10.74 11.94 10.74 7.76 17.9 7.76 17.9 4.18"/><polygon class="cls-2" points="17.9 10.56 2.06 0 0 0 0 1.38 15.83 11.94 17.9 11.94 17.9 10.56"/><polygon class="cls-2" points="0 10.56 15.85 0 17.9 0 17.9 1.38 2.07 11.94 0 11.94 0 10.56"/><polygon class="cls-3" points="17.9 4.92 9.99 4.92 9.99 0 7.91 0 7.91 4.92 0 4.92 0 7.01 7.91 7.01 7.91 11.94 9.99 11.94 9.99 7.01 17.9 7.01 17.9 4.92"/><polygon class="cls-3" points="17.9 0 16.49 0 10.74 3.82 10.74 4.18 11.62 4.18 17.9 0 17.9 0"/><polygon class="cls-3" points="0 0.01 0 0.95 4.85 4.18 6.27 4.18 0 0.01"/></g></g></svg>