
<svg width="35px" height="23px" viewBox="0 0 35 23" version="1.1" xmlns="http://www.w3.org/2000/svg" xmlns:xlink="http://www.w3.org/1999/xlink">
    <!-- Generator: Sketch 50.2 (55047) - http://www.bohemiancoding.com/sketch -->
    <desc>Created with Sketch.</desc>
    <defs></defs>
    <g id="Page-1" stroke="none" stroke-width="1" fill="none" fill-rule="evenodd">
        <g id="Sub-component" transform="translate(-306.000000, -195.000000)">
            <g id="south-korea" transform="translate(306.000000, 195.000000)">
                <path d="M34.3294737,22.9811756 L0.602300195,22.9811756 C0.269697856,22.9811756 0,22.7105833 0,22.376878 L0,0.623190476 C0,0.289485119 0.269697856,0.0188928571 0.602300195,0.0188928571 L34.3295419,0.0188928571 C34.6621442,0.0188928571 34.9318421,0.289485119 34.9318421,0.623190476 L34.9318421,22.376878 C34.9317739,22.7106518 34.662076,22.9811756 34.3294737,22.9811756 Z" id="Shape" fill="#FFFFFF" fill-rule="nonzero"></path>
                <path d="M20.8095809,6.47100893 C18.0421248,4.6199881 14.3042203,5.37672917 12.4604776,8.14850298 C11.5356725,9.53199405 11.9115984,11.4119018 13.2952242,12.3374464 C14.6778265,13.2629911 16.5455166,12.887119 17.4680019,11.4987679 C18.3904873,10.1104851 20.2594055,9.73926786 21.6419396,10.6599524 C23.0267934,11.585497 23.3992398,13.4654048 22.4754581,14.8488958 C24.3204288,12.0724673 23.5746491,8.32209821 20.8095809,6.47100893" id="Shape" fill="#D0021B" fill-rule="nonzero"></path>
                <path d="M12.4604094,8.14857143 C11.5356043,9.5320625 11.9115302,11.4119702 13.2951559,12.3375149 C14.6777583,13.2630595 16.5454483,12.8871875 17.4679337,11.4988363 C18.3904191,10.1105536 20.2593372,9.73933631 21.6418713,10.6600208 C23.0267251,11.5855655 23.3991715,13.4654732 22.4753899,14.8489643 C20.6328752,17.6303214 16.8961988,18.3776161 14.1287427,16.5265268 C11.3638109,14.6755744 10.6155068,10.9252054 12.4604094,8.14857143" id="Shape" fill="#41479B" fill-rule="nonzero"></path>
                <g id="Group" transform="translate(5.867446, 2.464286)" fill="#464655" fill-rule="nonzero">
                    <path d="M18.0062378,1.72438393 L19.1002437,3.37422321 C19.1921442,3.51283929 19.154961,3.6999881 19.017076,3.79260417 L18.7396686,3.979 C18.6012378,4.07195833 18.4138889,4.03458333 18.3215107,3.8954881 L17.2261404,2.24605952 C17.1339669,2.10730655 17.1713548,1.91981548 17.3095809,1.8271994 L17.5883528,1.64046131 C17.7268519,1.54770833 17.9139961,1.58528869 18.0062378,1.72438393 Z" id="Shape"></path>
                    <path d="M19.694152,4.26814286 L20.7917057,5.91695536 C20.8843567,6.0561875 20.8464912,6.24456845 20.7073099,6.33684226 L20.4286745,6.52159524 C20.2904483,6.61332143 20.1043275,6.57560417 20.0122904,6.43739881 L18.9153509,4.79029762 C18.8229727,4.6516131 18.8600877,4.46398512 18.9983821,4.37123214 L19.2763353,4.18476786 C19.4146296,4.09201488 19.6017057,4.12932143 19.694152,4.26814286 Z" id="Shape"></path>
                    <path d="M19.1776121,0.940056548 L21.9632164,5.13433929 C22.0554581,5.27316071 22.0180019,5.46072024 21.8796394,5.55326786 L21.5997758,5.74041667 C21.4614133,5.83303274 21.2744055,5.79545238 21.1821637,5.65663095 L18.3956043,1.46262202 C18.3032943,1.32373214 18.3408187,1.13603571 18.4793177,1.04355655 L18.7600682,0.856065476 C18.898499,0.763723214 19.0853704,0.801235119 19.1776121,0.940056548 Z" id="Shape"></path>
                    <path d="M20.3457797,0.15696131 L21.4421735,1.81001786 C21.5345517,1.94925 21.4966179,2.13722024 21.3575049,2.2294256 L21.0787329,2.41424702 C20.9403704,2.50597321 20.7541813,2.46825595 20.6622125,2.32977679 L19.565,0.678910714 C19.4726901,0.540089286 19.5101462,0.35246131 19.6485088,0.25991369 L19.9281676,0.0729017857 C20.066462,-0.0197142857 20.253538,0.0178660714 20.3457797,0.15696131 Z" id="Shape"></path>
                    <path d="M22.0347856,2.70605952 L23.1294737,4.35569345 C23.2215789,4.49437798 23.1842593,4.68166369 23.0462378,4.77427976 L22.7682164,4.96074405 C22.6297856,5.05363393 22.4424366,5.01612202 22.3501949,4.87702679 L21.2555068,3.22739286 C21.1634698,3.08870833 21.2007212,2.90142262 21.3387427,2.80880655 L21.6167641,2.62234226 C21.7551267,2.52945238 21.9424756,2.56689583 22.0347856,2.70605952 Z" id="Shape"></path>
                    <path d="M3.18759259,11.6357411 L5.97285575,15.825506 C6.06509747,15.9642589 6.027846,16.1518185 5.88948343,16.2444345 L5.61057505,16.4313095 C5.47221248,16.523994 5.28520468,16.4865506 5.19282651,16.3476607 L2.40756335,12.1578958 C2.31532164,12.0191429 2.3525731,11.8315833 2.49093567,11.7389673 L2.76984405,11.5520923 C2.90820663,11.4594077 3.09528265,11.4969196 3.18759259,11.6357411 Z" id="Shape"></path>
                    <path d="M2.01826511,12.4194524 L3.11179337,14.0651161 C3.20396686,14.2038006 3.16678363,14.3910179 3.02876218,14.4837708 L2.75135478,14.6700982 C2.61306043,14.7629881 2.42584795,14.7256815 2.33340156,14.5867917 L1.238577,12.9415387 C1.14619883,12.8027857 1.18345029,12.6151577 1.32181287,12.5224732 L1.6005848,12.3357351 C1.73887914,12.243119 1.92595517,12.2805625 2.01826511,12.4194524 Z" id="Shape"></path>
                    <path d="M3.70815789,14.9641012 L4.80291423,16.6139405 C4.89501949,16.752625 4.85769981,16.9399792 4.71954191,17.0325268 L4.44131579,17.219128 C4.30288499,17.3119494 4.11574074,17.274506 4.02336257,17.1355476 L2.92792398,15.4860506 C2.83575049,15.3472976 2.8731384,15.1598065 3.0112963,15.0671905 L3.29020468,14.8803155 C3.4287037,14.787494 3.61584795,14.8250744 3.70815789,14.9641012 Z" id="Shape"></path>
                    <path d="M0.848869396,13.2028899 L3.63235867,17.3928601 C3.72453216,17.5315446 3.68721248,17.7189673 3.54919103,17.8116518 L3.27103314,17.998253 C3.13267057,18.0910744 2.94552632,18.0536994 2.85314815,17.9147411 L0.0680214425,13.7253185 C-0.024288499,13.586497 0.0131676413,13.398869 0.151530214,13.306253 L0.431393762,13.1191042 C0.569619883,13.0265565 0.75662768,13.0640685 0.848869396,13.2028899 Z" id="Shape"></path>
                    <path d="M2.40797271,5.91722917 L5.19282651,1.72404167 C5.28513645,1.58508333 5.47221248,1.54757143 5.61064327,1.64025595 L5.88948343,1.8270625 C6.02777778,1.91967857 6.06502924,2.1072381 5.97285575,2.24599107 L3.18691033,6.43685119 C3.09480507,6.57533036 2.90847953,6.61297917 2.77018519,6.52111607 L2.49243665,6.3366369 C2.35339181,6.2443631 2.31559454,6.0563244 2.40797271,5.91722917 Z" id="Shape"></path>
                    <path d="M1.23809942,5.1346131 L4.0234308,0.940604167 C4.11574074,0.801645833 4.30295322,0.764133929 4.44138402,0.856955357 L4.71954191,1.04355655 C4.85763158,1.13617262 4.89488304,1.32345833 4.80277778,1.46221131 L2.01819688,5.6564256 C1.92588694,5.79538393 1.73881092,5.83296429 1.60038012,5.74021131 L1.32147173,5.55340476 C1.18324561,5.46085714 1.14592593,5.27336607 1.23809942,5.1346131 Z" id="Shape"></path>
                    <path d="M0.0675438596,4.35535119 L2.85314815,0.157166667 C2.94545809,0.018139881 3.13273879,-0.0194404762 3.27116959,0.0733809524 L3.54932749,0.259982143 C3.68741715,0.352598214 3.72466862,0.539747024 3.63269981,0.6785 L0.84880117,4.8773006 C0.75662768,5.01632738 0.569483431,5.05397619 0.431052632,4.96136012 L0.151189084,4.77421131 C0.0128947368,4.68166369 -0.0244931774,4.49417262 0.0675438596,4.35535119 Z" id="Shape"></path>
                    <path d="M17.2266179,15.825506 L18.3214425,14.180253 C18.4138889,14.0413631 18.6011014,14.0040565 18.7393957,14.0969464 L19.0168031,14.2833423 C19.1548246,14.3760268 19.1919396,14.5633125 19.0998343,14.701997 L18.006306,16.3475923 C17.9139961,16.4864821 17.7269201,16.523994 17.5885575,16.4313095 L17.3097856,16.2445714 C17.1714912,16.1518869 17.1342398,15.9643274 17.2266179,15.825506 Z" id="Shape"></path>
                    <path d="M18.9152144,13.2894821 L20.0118129,11.6360833 C20.1040546,11.497125 20.2911306,11.4594762 20.4295614,11.5520923 L20.7090156,11.7389673 C20.8474464,11.8315833 20.8848343,12.0193482 20.7924561,12.1581696 L19.693538,13.8089673 C19.6013645,13.9474464 19.415039,13.9849583 19.2767446,13.8929583 L18.9996101,13.7086845 C18.86077,13.6163423 18.8229727,13.4285089 18.9152144,13.2894821 Z" id="Shape"></path>
                    <path d="M18.3955361,16.6133244 L19.4910429,14.9637589 C19.5832846,14.824869 19.7702924,14.7872887 19.9087232,14.8799048 L20.1887232,15.0672589 C20.3270175,15.1598065 20.3644055,15.3472292 20.2723002,15.486119 L19.1774756,17.1358214 C19.0853021,17.2747113 18.8984308,17.3123601 18.7599318,17.219881 L18.4791813,17.0323899 C18.3408187,16.9399107 18.3032943,16.7522143 18.3955361,16.6133244 Z" id="Shape"></path>
                    <path d="M20.0859747,14.0645 L21.1820955,12.4187679 C21.2744737,12.2801518 21.4612768,12.2427768 21.5995712,12.335256 L21.8794347,12.5224048 C22.0178655,12.6150208 22.0552534,12.8027857 21.9627388,12.9416071 L20.8666862,14.5873393 C20.7743762,14.7259554 20.5875049,14.7633304 20.4492788,14.6708512 L20.169347,14.4837024 C20.0307797,14.3912232 19.99346,14.2033899 20.0859747,14.0645 Z" id="Shape"></path>
                    <path d="M19.5652729,17.3925179 L20.6620078,15.7458274 C20.7541131,15.607622 20.9401657,15.5699732 21.0783918,15.661631 L21.3571637,15.8464524 C21.4962768,15.9387262 21.5342105,16.1269018 21.4416959,16.2661339 L20.3457797,17.9150149 C20.253538,18.0538363 20.0665302,18.0912798 19.9281676,17.9988006 L19.6485088,17.8117887 C19.510078,17.7191042 19.4727583,17.5313393 19.5652729,17.3925179 Z" id="Shape"></path>
                    <path d="M21.2561209,14.8521131 L22.3501267,13.2034375 C22.4424366,13.0644107 22.6297173,13.0268304 22.7681481,13.1197202 L23.0459649,13.3060476 C23.1841228,13.3987321 23.221306,13.5862232 23.1290643,13.7249077 L22.0341033,15.3713929 C21.9420663,15.5099405 21.7555361,15.5475208 21.6172417,15.4555208 L21.3402437,15.2713839 C21.20154,15.1791101 21.1638109,14.9912083 21.2561209,14.8521131 Z" id="Shape"></path>
                </g>
                <rect id="Rectangle-11" stroke-opacity="0.466117527" stroke="#4A4A4A" x="0.5" y="0.5" width="34" height="22"></rect>
            </g>
        </g>
    </g>
</svg>