
<svg width="35px" height="24px" viewBox="0 0 35 24" version="1.1" xmlns="http://www.w3.org/2000/svg" xmlns:xlink="http://www.w3.org/1999/xlink">
    <!-- Generator: Sketch 50.2 (55047) - http://www.bohemiancoding.com/sketch -->
    <desc>Created with Sketch.</desc>
    <defs></defs>
    <g id="Page-1" stroke="none" stroke-width="1" fill="none" fill-rule="evenodd">
        <g id="Sub-component" transform="translate(-306.000000, -115.000000)">
            <g id="Việt-Nam!" transform="translate(306.000000, 115.000000)">
                <g id="vietnam">
                    <path d="M34.3964563,23 C34.0346192,23.0063674 22.7702923,23.0063674 0.603475384,23 C0.270224082,23 0,22.7289633 0,22.3947098 L0,0.605290223 C0,0.27103673 0.270224082,0 0.603475384,0 L34.3965246,0 C34.7297759,0 35,0.27103673 35,0.605290223 L35,22.3947098 C34.9999316,22.7290318 34.9392118,22.9904489 34.3964563,23 Z" id="Shape" fill="#D0021B" fill-rule="nonzero"></path>
                    <path d="M17.7740109,5.00154323 L19.344293,10.0064823 L24.3074857,10.0473477 C24.5849738,10.0496101 24.7000396,10.4260941 24.4768253,10.6013624 L20.4841758,13.7354766 L21.9812947,18.7656561 C22.0650333,19.0469055 21.7637339,19.2796539 21.5379256,19.1080621 L17.5000479,16.0401242 L13.4621038,19.1080621 C13.236362,19.2795832 12.9350626,19.0469055 13.0187347,18.7656561 L14.5158536,13.7354766 L10.5232041,10.6013624 C10.2999232,10.4261648 10.4150555,10.0496101 10.6925436,10.0473477 L15.6557364,10.0064823 L17.2260185,5.00154323 C17.3138808,4.72170781 17.6862151,4.72170781 17.7740109,5.00154323 Z" id="Shape" fill="#FFE15A" fill-rule="nonzero"></path>
                    <rect id="Rectangle-19" stroke="#FFFFFF" stroke-width="0.5" x="0.25" y="0.25" width="34.5" height="22.5"></rect>
                </g>
            </g>
        </g>
    </g>
</svg>