<svg 
 xmlns="http://www.w3.org/2000/svg"
 xmlns:xlink="http://www.w3.org/1999/xlink"
 width="12px" height="13px">
<path fill-rule="evenodd"  fill="rgb(113, 113, 113)"
 d="M7.045,5.997 L11.768,1.259 C12.062,0.965 12.062,0.488 11.768,0.194 C11.474,-0.101 10.999,-0.101 10.706,0.194 L5.983,4.932 L1.260,0.194 C0.967,-0.101 0.492,-0.101 0.199,0.194 C-0.095,0.488 -0.095,0.965 0.199,1.259 L4.921,5.997 L0.199,10.735 C-0.095,11.029 -0.095,11.506 0.199,11.801 C0.345,11.948 0.537,12.021 0.729,12.021 C0.921,12.021 1.114,11.948 1.260,11.801 L5.983,7.062 L10.706,11.801 C10.853,11.948 11.045,12.021 11.237,12.021 C11.429,12.021 11.622,11.948 11.768,11.801 C12.062,11.506 12.062,11.029 11.768,10.735 L7.045,5.997 Z"/>
</svg>