<svg 
 xmlns="http://www.w3.org/2000/svg"
 xmlns:xlink="http://www.w3.org/1999/xlink"
 width="18px" height="18px">
<path fill-rule="evenodd"  fill="rgb(77, 78, 78)"
 d="M-0.000,-0.000 L18.000,-0.000 L18.000,18.000 L-0.000,18.000 L-0.000,-0.000 Z"/>
<path fill-rule="evenodd"  fill="rgb(255, 255, 255)"
 d="M15.000,13.939 L13.939,15.000 L12.220,13.280 L10.500,15.000 L10.500,10.500 L15.000,10.500 L13.280,12.220 L15.000,13.939 ZM10.500,7.500 L10.500,3.000 L12.220,4.720 L13.925,3.016 L14.985,4.077 L13.280,5.780 L15.000,7.500 L10.500,7.500 ZM4.061,15.000 L3.000,13.939 L4.720,12.220 L3.000,10.500 L7.500,10.500 L7.500,15.000 L5.780,13.280 L4.061,15.000 ZM4.720,5.780 L3.018,4.077 L4.078,3.016 L5.780,4.720 L7.500,3.000 L7.500,7.500 L3.000,7.500 L4.720,5.780 Z"/>
</svg>