<svg 
 xmlns="http://www.w3.org/2000/svg"
 xmlns:xlink="http://www.w3.org/1999/xlink"
 width="18px" height="18px">
<path fill-rule="evenodd"  fill="rgb(77, 78, 78)"
 d="M-0.000,-0.000 L18.000,-0.000 L18.000,18.000 L-0.000,18.000 L-0.000,-0.000 Z"/>
<path fill-rule="evenodd"  fill="rgb(255, 255, 255)"
 d="M14.702,15.000 L10.692,15.000 C10.528,15.000 10.395,14.865 10.395,14.699 L10.395,14.127 C10.395,13.961 10.528,13.826 10.692,13.826 L13.016,13.826 L9.698,10.476 C9.582,10.358 9.582,10.168 9.698,10.050 L10.099,9.646 C10.215,9.528 10.404,9.528 10.520,9.646 L13.838,12.996 L13.838,10.649 C13.838,10.483 13.971,10.349 14.136,10.349 L14.702,10.349 C14.867,10.349 15.000,10.483 15.000,10.649 L15.000,14.699 C15.000,14.865 14.867,15.000 14.702,15.000 ZM14.702,7.651 L14.136,7.651 C13.971,7.651 13.838,7.517 13.838,7.351 L13.838,5.003 L10.520,8.354 C10.462,8.413 10.386,8.442 10.310,8.442 C10.233,8.442 10.157,8.413 10.099,8.354 L9.698,7.950 C9.582,7.832 9.582,7.642 9.698,7.524 L13.016,4.174 L10.692,4.174 C10.528,4.174 10.395,4.039 10.395,3.873 L10.395,3.301 C10.395,3.135 10.528,3.000 10.692,3.000 L14.702,3.000 C14.867,3.000 15.000,3.135 15.000,3.301 L15.000,7.351 C15.000,7.517 14.867,7.651 14.702,7.651 ZM4.984,13.826 L7.308,13.826 C7.472,13.826 7.605,13.961 7.605,14.127 L7.605,14.699 C7.605,14.865 7.472,15.000 7.308,15.000 L3.298,15.000 C3.133,15.000 3.000,14.865 3.000,14.699 L3.000,10.649 C3.000,10.483 3.133,10.349 3.298,10.349 L3.864,10.349 C4.029,10.349 4.162,10.483 4.162,10.649 L4.162,12.997 L7.480,9.646 C7.596,9.528 7.785,9.528 7.901,9.646 L8.301,10.050 C8.418,10.168 8.418,10.358 8.301,10.476 L4.984,13.826 ZM7.901,8.354 C7.843,8.413 7.767,8.442 7.690,8.442 C7.614,8.442 7.538,8.413 7.480,8.354 L4.162,5.003 L4.162,7.351 C4.162,7.517 4.029,7.651 3.864,7.651 L3.298,7.651 C3.133,7.651 3.000,7.517 3.000,7.351 L3.000,3.301 C3.000,3.135 3.133,3.000 3.298,3.000 L7.308,3.000 C7.472,3.000 7.605,3.135 7.605,3.301 L7.605,3.873 C7.605,4.039 7.472,4.174 7.308,4.174 L4.984,4.174 L8.301,7.524 C8.418,7.642 8.418,7.832 8.301,7.950 L7.901,8.354 Z"/>
</svg>