<svg 
 xmlns="http://www.w3.org/2000/svg"
 xmlns:xlink="http://www.w3.org/1999/xlink"
 width="14px" height="12px">
<path fill-rule="evenodd"  fill="rgb(77, 78, 78)"
 d="M13.940,6.267 L13.402,6.959 C13.355,7.015 13.295,7.049 13.219,7.062 L13.193,7.062 C13.118,7.062 13.057,7.040 13.011,6.996 L7.000,1.598 L0.989,6.996 C0.920,7.046 0.850,7.068 0.781,7.062 C0.705,7.049 0.645,7.015 0.598,6.959 L0.060,6.267 C0.013,6.204 -0.007,6.131 -0.001,6.047 C0.005,5.962 0.037,5.895 0.094,5.846 L6.340,0.241 C6.525,0.079 6.745,-0.002 7.000,-0.002 C7.255,-0.002 7.475,0.079 7.660,0.241 L9.780,2.150 L9.780,0.326 C9.780,0.239 9.806,0.167 9.858,0.111 C9.910,0.054 9.976,0.026 10.058,0.026 L11.725,0.026 C11.806,0.026 11.873,0.054 11.925,0.111 C11.977,0.167 12.003,0.239 12.003,0.326 L12.003,4.143 L13.905,5.846 C13.963,5.896 13.995,5.963 14.001,6.047 C14.007,6.131 13.987,6.204 13.940,6.267 ZM2.005,6.856 L7.000,2.421 L11.995,6.856 C12.000,6.868 12.003,6.887 12.003,6.912 L12.003,11.403 C12.003,11.565 11.948,11.705 11.838,11.824 C11.728,11.942 11.598,12.002 11.447,12.002 L8.112,12.002 L8.112,8.409 L5.888,8.409 L5.888,12.002 L2.553,12.002 C2.402,12.002 2.272,11.942 2.162,11.824 C2.052,11.705 1.997,11.565 1.997,11.403 L1.997,6.912 C1.997,6.906 1.998,6.897 2.001,6.884 C2.004,6.872 2.005,6.862 2.005,6.856 Z"/>
</svg>