<svg xmlns="http://www.w3.org/2000/svg" viewBox="0 0 24.76 31.85"><defs><style>.cls-1{fill:none;stroke:#464747;stroke-miterlimit:10;stroke-width:1.5px;}.cls-2{fill:#464747;}.cls-3{fill:#afafaf;}.cls-4{fill:#7f7f7f;}.cls-5{fill:#8c8c8c;}.cls-6{fill:#2d2d2d;}</style></defs><title>Asset 2</title><g id="Layer_2" data-name="Layer 2"><g id="Layer_1-2" data-name="Layer 1"><line class="cls-1" x1="18.45" y1="1.47" x2="18.45" y2="6.88"/><line class="cls-1" x1="24.16" y1="6.13" x2="18.75" y2="6.13"/><path class="cls-1" d="M18.3.75H1.75a1,1,0,0,0-1,1V30.1a1,1,0,0,0,1,1H23a1,1,0,0,0,1-1v-24Z"/><rect class="cls-2" x="4.73" y="18.88" width="15.55" height="0.51"/><rect class="cls-2" x="4.73" y="22.88" width="15.55" height="0.51"/><rect class="cls-2" x="4.73" y="8.88" width="7.08" height="0.53"/><rect class="cls-2" x="4.73" y="11.88" width="7.08" height="0.53"/><rect class="cls-2" x="4.73" y="14.88" width="7.08" height="0.53"/><rect class="cls-2" x="14.03" y="8.88" width="6.25" height="6.42"/><path class="cls-3" d="M16.45,13.32a2.29,2.29,0,0,0-.56.53s-1.37.3-1.59.89a1.57,1.57,0,0,0,0,.54H20a1.89,1.89,0,0,0-.06-.62,2.48,2.48,0,0,0-1.58-.8,1.31,1.31,0,0,0-.51-.51Z"/><path class="cls-4" d="M17.92,13.05h0l-1.49,0v.75s.69.43.74.72a1.83,1.83,0,0,1,.72-.73s0-.35,0-.51A.93.93,0,0,1,17.92,13.05Z"/><path class="cls-5" d="M16.34,10.34a.71.71,0,0,1,.56-.47.24.24,0,0,0-.06.18.46.46,0,0,0,.34-.28s.57,0,.68.51c0,0,.72.18.5,1.34,0,0,.17.11.07.51,0,0-.06.35-.26.36a1.19,1.19,0,0,1-.88,1s-.87.18-1.15-1a.45.45,0,0,1-.28-.47s0-.35.09-.4S15.67,10.7,16.34,10.34Z"/><path class="cls-6" d="M16,11.62s-.28-.92.39-1.28a.71.71,0,0,1,.56-.47.24.24,0,0,0-.06.18.46.46,0,0,0,.34-.28s.57,0,.68.51c0,0,.72.18.5,1.34a3.22,3.22,0,0,1-.19.6,2,2,0,0,1-.05-.72,1.24,1.24,0,0,1-.31-1s-.09.27-.5.24c0,0-.65-.08-.88.25a1.88,1.88,0,0,0-.25,1.29A1.79,1.79,0,0,1,16,11.62Z"/></g></g></svg>