<svg xmlns="http://www.w3.org/2000/svg" xmlns:xlink="http://www.w3.org/1999/xlink" viewBox="0 0 42.48 42.48"><defs><style>.cls-1{fill:none;}.cls-2{fill:#e1e1e1;}.cls-3{clip-path:url(#clip-path);}.cls-4{fill:#474747;}</style><clipPath id="clip-path"><rect class="cls-1" x="12.83" y="12.24" width="16.83" height="18"/></clipPath></defs><title>Asset 11</title><g id="Layer_2" data-name="Layer 2"><g id="Layer_1-2" data-name="Layer 1"><circle class="cls-2" cx="21.24" cy="21.24" r="21.24"/><g class="cls-3"><path class="cls-4" d="M21.11,21.07a4.22,4.22,0,0,0,4-4.41,4.22,4.22,0,0,0-4-4.42,4.22,4.22,0,0,0-4,4.42,4.22,4.22,0,0,0,4,4.41Z"/><path class="cls-4" d="M25.71,20.49a.56.56,0,0,0-.6.26,4.86,4.86,0,0,1-4,2.38,4.88,4.88,0,0,1-4-2.38.56.56,0,0,0-.6-.26c-3.1.69-3.92,5.36-3.68,9.16a.57.57,0,0,0,.56.53H28.83a.57.57,0,0,0,.56-.53c.24-3.8-.58-8.48-3.68-9.16Z"/></g></g></g></svg>