<svg 
 xmlns="http://www.w3.org/2000/svg"
 xmlns:xlink="http://www.w3.org/1999/xlink"
 width="34px" height="34px">
<path fill-rule="evenodd"  fill="rgb(174, 47, 24)"
 d="M-0.000,0.000 L34.000,0.000 L34.000,34.000 L-0.000,34.000 L-0.000,0.000 Z"/>
<path fill-rule="evenodd"  fill="rgb(255, 255, 255)"
 d="M24.960,29.000 L8.040,29.000 C7.515,29.000 7.000,28.590 7.000,28.172 L7.000,21.966 L26.000,21.966 L26.000,28.172 C26.000,28.590 25.485,29.000 24.960,29.000 ZM13.902,23.925 C13.815,23.765 13.702,23.628 13.561,23.515 C13.421,23.402 13.262,23.317 13.085,23.260 C12.908,23.204 12.729,23.175 12.548,23.175 L11.325,23.175 L11.325,27.345 L12.018,27.345 L12.018,25.840 L12.532,25.840 C12.754,25.840 12.959,25.808 13.143,25.744 C13.328,25.680 13.486,25.589 13.617,25.472 C13.747,25.356 13.850,25.211 13.923,25.040 C13.996,24.868 14.033,24.677 14.032,24.465 C14.032,24.265 13.989,24.085 13.902,23.925 ZM18.148,24.417 C18.060,24.181 17.926,23.971 17.747,23.786 C17.568,23.602 17.343,23.453 17.072,23.342 C16.801,23.231 16.486,23.175 16.128,23.175 L14.847,23.175 L14.847,27.345 L16.457,27.345 C16.511,27.345 16.594,27.338 16.705,27.326 C16.817,27.313 16.940,27.282 17.075,27.235 C17.209,27.188 17.349,27.117 17.493,27.023 C17.637,26.929 17.767,26.799 17.883,26.635 C17.998,26.471 18.093,26.267 18.169,26.024 C18.244,25.781 18.281,25.487 18.281,25.144 C18.281,24.895 18.237,24.652 18.148,24.417 ZM21.947,23.175 L19.285,23.175 L19.285,27.345 L19.990,27.345 L19.990,25.467 L21.768,25.467 L21.768,25.003 L19.990,25.003 L19.990,23.690 L21.947,23.690 L21.947,23.175 ZM16.226,26.847 L15.539,26.847 L15.539,23.690 L15.943,23.690 C16.275,23.690 16.544,23.732 16.752,23.817 C16.959,23.902 17.124,24.013 17.245,24.151 C17.366,24.289 17.448,24.442 17.491,24.612 C17.533,24.782 17.554,24.954 17.554,25.127 C17.554,25.685 17.450,26.111 17.242,26.406 C17.035,26.700 16.696,26.847 16.226,26.847 ZM13.132,25.161 C13.063,25.225 12.987,25.271 12.904,25.299 C12.821,25.328 12.738,25.342 12.653,25.342 L12.018,25.342 L12.018,23.690 L12.537,23.690 C12.714,23.690 12.857,23.718 12.965,23.772 C13.072,23.827 13.156,23.895 13.216,23.976 C13.276,24.057 13.315,24.142 13.334,24.231 C13.353,24.319 13.363,24.397 13.363,24.465 C13.363,24.635 13.342,24.777 13.300,24.892 C13.257,25.007 13.202,25.097 13.132,25.161 ZM7.000,6.211 C7.000,5.379 7.539,5.000 8.040,5.000 L20.294,5.000 C20.503,5.000 20.707,5.083 20.854,5.228 L25.768,10.042 C25.961,10.232 26.000,10.467 26.000,10.784 L26.000,21.138 L7.000,21.138 L7.000,6.211 ZM24.722,10.430 L20.459,6.253 C20.322,6.119 20.089,6.214 20.089,6.403 L20.089,10.793 L24.568,10.793 C24.762,10.793 24.858,10.564 24.722,10.430 ZM12.510,19.069 C12.630,19.157 12.771,19.203 12.918,19.203 C13.287,19.203 13.661,18.927 14.093,18.332 C14.407,17.898 14.746,17.307 15.099,16.573 C16.229,16.088 17.628,15.650 18.826,15.405 C19.493,16.033 20.091,16.350 20.604,16.350 C20.982,16.350 21.306,16.180 21.541,15.858 C21.786,15.522 21.841,15.221 21.706,14.964 C21.543,14.652 21.142,14.502 20.481,14.502 C20.093,14.502 19.616,14.552 19.063,14.650 C18.290,13.846 17.484,12.673 16.915,11.521 C17.479,9.191 17.197,8.861 17.072,8.706 C16.940,8.540 16.753,8.272 16.540,8.272 C16.450,8.272 16.207,8.312 16.111,8.343 C15.867,8.422 15.737,8.606 15.632,8.846 C15.333,9.530 15.743,10.696 16.164,11.595 C15.804,12.999 15.200,14.679 14.565,16.043 C12.965,16.761 12.115,17.466 12.038,18.140 C12.010,18.385 12.069,18.745 12.510,19.069 ZM14.041,17.082 C13.357,18.320 12.989,18.484 12.926,18.504 C12.729,18.356 12.740,18.255 12.745,18.217 C12.771,17.987 13.138,17.579 14.041,17.082 ZM18.259,14.814 C17.358,15.022 16.398,15.315 15.516,15.650 C15.944,14.649 16.342,13.544 16.645,12.520 C17.119,13.355 17.689,14.166 18.259,14.814 ZM16.389,9.019 C16.407,9.013 16.830,9.474 16.429,10.350 C15.827,9.746 16.347,9.032 16.389,9.019 ZM21.060,15.280 C21.050,15.310 21.026,15.366 20.963,15.452 C20.833,15.630 20.551,15.634 20.452,15.634 C20.227,15.634 20.143,15.503 19.799,15.243 C20.083,15.208 20.351,15.199 20.564,15.199 C20.939,15.199 21.008,15.253 21.060,15.280 Z"/>
</svg>