<svg xmlns="http://www.w3.org/2000/svg" xmlns:xlink="http://www.w3.org/1999/xlink" viewBox="0 0 27.68 29.83"><defs><style>.cls-1{fill:none;}.cls-2{clip-path:url(#clip-path);}.cls-3{fill:#464646;}</style><clipPath id="clip-path" transform="translate(0 0)"><rect class="cls-1" width="28.38" height="30.65"/></clipPath></defs><title>Asset 7</title><g id="Layer_2" data-name="Layer 2"><g id="Layer_1-2" data-name="Layer 1"><g class="cls-2"><path class="cls-3" d="M2.18,20.8S.57,27.11,0,29.57l3.08-4.22a2.11,2.11,0,0,1,.38-2.1A1.85,1.85,0,0,1,6,23.19a1.77,1.77,0,0,1,.11,2.49A2.06,2.06,0,0,1,4,26.21L.19,29.83l8.13-3.15,3.26-4.89-4.27-4ZM25,.06C23.79.9,8.36,16.59,8.36,16.59l4.34,4.15S25.79,5.26,27.68,2.1A2.1,2.1,0,0,0,25,.06Z" transform="translate(0 0)"/></g></g></g></svg>