<svg xmlns="http://www.w3.org/2000/svg" xmlns:xlink="http://www.w3.org/1999/xlink" viewBox="0 0 28.98 30.34"><defs><style>.cls-1{fill:none;}.cls-2{clip-path:url(#clip-path);}.cls-3{fill:#CECECE;}</style><clipPath id="clip-path" transform="translate(0 -0.62)"><rect class="cls-1" width="29.41" height="31.66"/></clipPath></defs><title>Asset 8</title><g id="Layer_2" data-name="Layer 2"><g id="Layer_1-2" data-name="Layer 1"><g class="cls-2"><path class="cls-3" d="M7.6,31A7.62,7.62,0,0,1,2.22,18L18,2.24a5.64,5.64,0,0,1,8.14.24,5.64,5.64,0,0,1,.24,8.14L11.55,25.41a3.56,3.56,0,0,1-5-5l10-10a.86.86,0,0,1,1.22,1.22l-10,10a1.83,1.83,0,0,0,2.59,2.59L25.12,9.4a4,4,0,0,0-.24-5.7,4,4,0,0,0-5.7-.23L3.44,19.21a5.88,5.88,0,0,0,8.32,8.31L27.5,11.78A.86.86,0,0,1,28.72,13L13,28.74A7.52,7.52,0,0,1,7.6,31Z" transform="translate(0 -0.62)"/></g></g></g></svg>