<svg xmlns="http://www.w3.org/2000/svg" viewBox="0 0 39.5 39.5"><defs><style>.cls-1,.cls-2{fill:#464747;}.cls-1{opacity:0;}.cls-2{fill-rule:evenodd;}</style></defs><title>Asset 5</title><g id="Layer_2" data-name="Layer 2"><g id="Layer_1-2" data-name="Layer 1"><g id="Icon"><rect id="Security_Space" data-name="Security Space" class="cls-1" width="39.5" height="39.5"/><g id="Icon-2" data-name="Icon"><path class="cls-2" d="M29.44,28.25a13.41,13.41,0,0,0-7.3-22.49h0a13.22,13.22,0,0,0-2.37-.22,13.42,13.42,0,0,0-9.66,22.74s0,0,0,0a.27.27,0,0,0,.08.07,13.41,13.41,0,0,0,19.09,0s.09-.06.12-.1S29.42,28.27,29.44,28.25Zm-8.91,2.52v-5.2a13.78,13.78,0,0,1,3.67.7,16.3,16.3,0,0,1-2.71,4.4C21.17,30.72,20.85,30.75,20.53,30.77Zm-2.27-.06a16.23,16.23,0,0,1-2.77-4.5A13.38,13.38,0,0,1,19,25.58v5.19Zm-10.32-11h4.55a20.37,20.37,0,0,0,1,5.53,16.11,16.11,0,0,0-2.61,1.49A11.81,11.81,0,0,1,7.94,19.75Zm2.92-8.6a15.35,15.35,0,0,0,2.55,1.45,20.88,20.88,0,0,0-.93,5.57H7.94A11.81,11.81,0,0,1,10.86,11.15Zm8.09-4v5.19a13.43,13.43,0,0,1-3.52-.65,16.58,16.58,0,0,1,2.66-4.45C18.37,7.2,18.66,7.17,19,7.15Zm2.71.13a16.36,16.36,0,0,1,2.6,4.35,13.85,13.85,0,0,1-3.73.72V7.15A10.86,10.86,0,0,1,21.66,7.28Zm9.9,10.89H27.24a20.71,20.71,0,0,0-1-5.66,15,15,0,0,0,2.36-1.36A11.81,11.81,0,0,1,31.56,18.17ZM19,18.17H14.06a19.09,19.09,0,0,1,.84-5,15.65,15.65,0,0,0,4,.73Zm0,1.58V24a15.27,15.27,0,0,0-4,.72,19.05,19.05,0,0,1-.89-5Zm1.58,0h5.12a19.1,19.1,0,0,1-.9,5A15.75,15.75,0,0,0,20.53,24Zm0-1.58V13.93a15.76,15.76,0,0,0,4.27-.82,19.36,19.36,0,0,1,.86,5.06ZM25.73,11A18.3,18.3,0,0,0,24.12,8,12,12,0,0,1,27.5,10,14.07,14.07,0,0,1,25.73,11ZM14,11.11A13.3,13.3,0,0,1,12,10a11.87,11.87,0,0,1,3.66-2.17A19.06,19.06,0,0,0,14,11.11ZM14,26.77a18.06,18.06,0,0,0,1.81,3.36A11.75,11.75,0,0,1,12,27.9,14.28,14.28,0,0,1,14,26.77Zm11.64.09a13.36,13.36,0,0,1,1.84,1A11.87,11.87,0,0,1,24,30,18.41,18.41,0,0,0,25.66,26.86Zm.56-1.49a21,21,0,0,0,1-5.62h4.33a11.81,11.81,0,0,1-2.92,7A15.83,15.83,0,0,0,26.22,25.37Z"/></g></g></g></g></svg>