<svg xmlns="http://www.w3.org/2000/svg" viewBox="0 0 26.2 33.44"><defs><style>.cls-1{fill:none;stroke:#464747;stroke-width:1.5px;}.cls-1,.cls-3{stroke-miterlimit:10;}.cls-2{fill:#464747;}.cls-3{fill:#0086d6;stroke:#f6f6f6;}</style></defs><title>Asset 3</title><g id="Layer_2" data-name="Layer 2"><g id="Layer_1-2" data-name="Layer 1"><line class="cls-1" x1="18.45" y1="3.06" x2="18.45" y2="8.47"/><line class="cls-1" x1="24.16" y1="7.72" x2="18.75" y2="7.72"/><path class="cls-1" d="M18.3,2.34H1.75a1,1,0,0,0-1,1V31.69a1,1,0,0,0,1,1H23a1,1,0,0,0,1-1v-24Z"/><rect class="cls-2" x="4.88" y="10.47" width="15.55" height="0.94"/><rect class="cls-2" x="4.88" y="14.47" width="15.55" height="0.94"/><rect class="cls-2" x="4.88" y="18.47" width="15.55" height="0.94"/><rect class="cls-2" x="4.88" y="22.47" width="15.55" height="0.94"/><path class="cls-3" d="M25.46,5.1a.78.78,0,0,0-.58-.24H21.34V1.32A.78.78,0,0,0,21.1.74.78.78,0,0,0,20.52.5H18.88a.8.8,0,0,0-.58.24.78.78,0,0,0-.23.58V4.86H14.52a.82.82,0,0,0-.82.82V7.32a.8.8,0,0,0,.24.58.78.78,0,0,0,.58.23h3.55v3.55a.78.78,0,0,0,.23.58.8.8,0,0,0,.58.24h1.64a.82.82,0,0,0,.82-.82V8.13h3.54a.78.78,0,0,0,.58-.23.8.8,0,0,0,.24-.58V5.68a.78.78,0,0,0-.24-.58Z"/></g></g></svg>