<svg xmlns="http://www.w3.org/2000/svg" viewBox="0 0 34.11 28.96"><defs><style>.cls-1{fill:none;stroke:#a5a5a5;stroke-width:1.5px;}.cls-1,.cls-4{stroke-miterlimit:10;}.cls-2{fill:#e20000;}.cls-3{font-size:5.43px;fill:#fff;font-family:Poppins-SemiBold, Poppins;font-weight:700;letter-spacing:0.1em;}.cls-4{fill:#00c640;stroke:#f6f6f6;}</style></defs><title>Asset 9</title><g id="Layer_2" data-name="Layer 2"><g id="Layer_1-2" data-name="Layer 1"><line class="cls-1" x1="20.57" y1="1.41" x2="20.57" y2="6.3"/><line class="cls-1" x1="25.74" y1="5.62" x2="20.84" y2="5.62"/><path class="cls-1" d="M20.43.75h-15a.91.91,0,0,0-.91.9V27.31a.9.9,0,0,0,.91.9H24.7a.9.9,0,0,0,.91-.9V5.63Z"/><path class="cls-2" d="M8.72,25.58a1.66,1.66,0,0,1-1.13-.49,1.91,1.91,0,0,1-.53-1.82,1.48,1.48,0,0,1,.64-.95,18.28,18.28,0,0,1,3.86-2.15,43.32,43.32,0,0,0,2.28-4.74,10.77,10.77,0,0,1-1.22-3.52,3.43,3.43,0,0,1,.12-1.51c.38-1.21,1.21-1.25,1.55-1.21.08,0,1.4.19,1.63,2.08a10.3,10.3,0,0,1-.87,4.13A13.13,13.13,0,0,0,18,18.88a17.42,17.42,0,0,1,4.28.49,1.68,1.68,0,0,1,.87.53,1.41,1.41,0,0,1,.26,1.48h0a1.52,1.52,0,0,1-.3.53,1.44,1.44,0,0,1-1.85.41,20.12,20.12,0,0,1-3.64-2.38A15.94,15.94,0,0,0,12.4,21c-.65,1.17-1.44,2.46-2.35,3.9a1.61,1.61,0,0,1-.72.6h0C9.06,25.54,8.88,25.58,8.72,25.58Zm1.86-3.82a13.66,13.66,0,0,0-2.24,1.4c-.11.11-.22.23-.22.34a.89.89,0,0,0,.3.83.57.57,0,0,0,.46.12h0a.31.31,0,0,0,.18-.19C9.59,23.39,10.12,22.55,10.58,21.76Zm8.82-1.82a21,21,0,0,0,2.27,1.36.37.37,0,0,0,.46-.11,1.1,1.1,0,0,0,.15-.27c.07-.19.07-.26,0-.37a.62.62,0,0,0-.34-.19A14.51,14.51,0,0,0,19.4,19.94Zm-4.92-3.37c-.38.87-.83,1.85-1.44,3a17.2,17.2,0,0,1,3.33-.68A18.72,18.72,0,0,1,14.48,16.57Zm-.38-6.36c-.15,0-.26.15-.38.49a2.27,2.27,0,0,0-.07,1,9,9,0,0,0,.64,2.2,7.45,7.45,0,0,0,.49-2.58c-.11-1-.64-1.13-.68-1.13Z"/><rect class="cls-2" y="2.32" width="18.41" height="6.6"/><text class="cls-3" transform="translate(3.51 7.42)">PDF</text><path class="cls-4" d="M33.59,18a.31.31,0,0,0-.28-.18H30v-7.5a.31.31,0,0,0-.3-.3h-4.8a.31.31,0,0,0-.3.3v7.5h-3.3a.28.28,0,0,0-.27.18.29.29,0,0,0,.06.33l6,6a.29.29,0,0,0,.21.09h0a.31.31,0,0,0,.22-.09l6-6A.3.3,0,0,0,33.59,18Z"/></g></g></svg>